<svg width="34" height="34" viewBox="0 0 34 34" fill="none" xmlns="http://www.w3.org/2000/svg">
<g clip-path="url(#clip0_2_8)">
<path fill-rule="evenodd" clip-rule="evenodd" d="M33.9446 21.4937C33.9518 21.5531 33.9365 21.6159 33.8965 21.6675L32.288 23.7411C32.2093 23.8427 32.0657 23.8626 31.9673 23.7856L22.0877 16.0447C21.5573 15.6292 21.314 14.9783 21.384 14.3403C21.3477 13.6111 21.8307 12.936 22.5628 12.7594L31.1937 10.6779C31.3183 10.6478 31.4435 10.725 31.4734 10.8502L32.0835 13.4069C32.1134 13.5321 32.0366 13.658 31.912 13.688L25.9308 15.1305L26.9072 15.8956L32.1377 14.6341C32.2623 14.604 32.3875 14.6812 32.4174 14.8064L33.0275 17.3631C33.0574 17.4883 32.9806 17.6142 32.856 17.6442L30.0138 18.3297L30.9902 19.0947L33.0817 18.5903C33.2063 18.5602 33.3316 18.6374 33.3615 18.7626L33.9715 21.3193C33.9863 21.3812 33.9748 21.4431 33.9446 21.4937ZM30.974 9.73038L18.7919 12.6684C18.1378 12.8261 17.4797 12.6115 17.027 12.1587C16.4374 11.7325 16.2136 10.9323 16.5327 10.247L20.2957 2.16706C20.35 2.05042 20.4881 2.00011 20.6042 2.05469L22.9733 3.1691C23.0893 3.22369 23.1394 3.36248 23.0851 3.47916L20.4774 9.07851L21.6813 8.78817L23.9617 3.89153C24.0161 3.77489 24.1542 3.72458 24.2702 3.77913L26.6394 4.89353C26.7554 4.94812 26.8055 5.08695 26.7511 5.20359L25.512 7.8643L26.716 7.57393L27.6278 5.61596C27.6821 5.49932 27.8202 5.44901 27.9363 5.5036L30.3054 6.618C30.3628 6.64499 30.4039 6.69261 30.4244 6.74791C30.475 6.77925 30.5142 6.83039 30.5294 6.89401L31.1395 9.45069C31.1693 9.57591 31.0953 9.70113 30.974 9.73038ZM14.1104 13.1536C13.8253 13.7657 13.2482 14.149 12.614 14.2226C11.9146 14.4207 11.1522 14.0977 10.8181 13.4195L6.87952 5.4255C6.82268 5.3101 6.86967 5.17022 6.9845 5.11304L9.32871 3.946C9.44355 3.88886 9.58272 3.93607 9.63956 4.05147L12.369 9.59124L12.8939 8.46417L10.507 3.61964C10.4502 3.50424 10.4971 3.36436 10.612 3.30718L12.9562 2.14018C13.071 2.083 13.2102 2.1302 13.2671 2.2456L14.564 4.87801L15.0889 3.7509L14.1345 1.81377C14.0777 1.69837 14.1247 1.55849 14.2395 1.50132L16.5837 0.334312C16.6404 0.306081 16.7031 0.303494 16.7588 0.321827C16.8148 0.301469 16.8791 0.302519 16.9381 0.330263L19.3072 1.44467C19.4233 1.49925 19.4745 1.63554 19.4216 1.74906L14.1104 13.1536ZM11.4663 18.9782C11.184 19.6506 10.4577 20.0479 9.72212 19.8878L1.04787 17.9994C0.922614 17.9721 0.843119 17.848 0.870252 17.7221L1.42429 15.1525C1.45142 15.0266 1.57496 14.9467 1.70017 14.9739L7.71153 16.2826L7.16216 15.1675L1.90518 14.0231C1.77997 13.9958 1.70047 13.8717 1.7276 13.7458L2.28164 11.1762C2.30878 11.0503 2.43227 10.9704 2.55752 10.9976L5.41405 11.6195L4.86467 10.5044L2.76253 10.0468C2.63732 10.0195 2.55779 9.89538 2.58496 9.76952L3.139 7.19987C3.15243 7.13756 3.18953 7.08668 3.23868 7.05433C3.25779 6.99772 3.2987 6.94793 3.35703 6.91891L5.70124 5.75187C5.81608 5.69473 5.95402 5.73942 6.00933 5.85174L11.5685 17.1349C11.867 17.7409 11.805 18.4337 11.4663 18.9782ZM14.45 22.843C14.7974 23.4842 14.6537 24.3029 14.0702 24.7812L7.19216 30.4205C7.09285 30.5019 6.94673 30.487 6.86575 30.3872L5.2124 28.3499C5.13141 28.2501 5.14627 28.1032 5.24554 28.0218L10.0121 24.1138L8.80207 23.8504L4.63376 27.268C4.53445 27.3494 4.38834 27.3345 4.30735 27.2347L2.654 25.1974C2.57301 25.0976 2.58787 24.9507 2.68714 24.8693L4.95212 23.0123L3.74215 22.7489L2.07537 24.1155C1.97605 24.1969 1.82994 24.1819 1.74895 24.0822L0.0956039 22.0449C0.0555578 21.9956 0.0391362 21.9347 0.0445479 21.876C0.0123766 21.8256 -0.000872546 21.7624 0.0129365 21.6984L0.566976 19.1288C0.594109 19.0029 0.714882 18.9224 0.836737 18.9489L13.0801 21.6143C13.7374 21.7574 14.2376 22.2377 14.45 22.843ZM17.5072 23.2188C18.0284 22.7915 18.7139 22.6978 19.3172 22.9083C20.0326 23.035 20.5798 23.6583 20.5881 24.415L20.6855 33.3354C20.687 33.4641 20.5842 33.5697 20.4561 33.5711L17.8404 33.6003C17.7123 33.6017 17.6072 33.4985 17.6058 33.3697L17.5383 27.1879L16.5789 27.9746L16.6379 33.3805C16.6393 33.5093 16.5366 33.6149 16.4085 33.6163L13.7928 33.6455C13.6646 33.6469 13.5596 33.5437 13.5582 33.4149L13.5261 30.4775L12.5667 31.2641L12.5903 33.4257C12.5917 33.5545 12.489 33.6601 12.3609 33.6615L9.74515 33.6907C9.68185 33.6914 9.62426 33.6664 9.58198 33.6255C9.52275 33.6194 9.46531 33.5904 9.42414 33.5397L7.7708 31.5024C7.68981 31.4027 7.7025 31.2575 7.79912 31.1783L17.5072 23.2188ZM22.4031 19.1242C22.9477 18.641 23.7739 18.5996 24.3676 19.0648L31.3672 24.5491C31.4683 24.6282 31.4864 24.7748 31.4076 24.8763L29.7991 26.95C29.7204 27.0516 29.5746 27.0698 29.4735 26.9906L24.6228 23.1899L24.6364 24.4343L28.8784 27.7579C28.9794 27.8371 28.9975 27.9836 28.9187 28.0852L27.3103 30.1589C27.2315 30.2605 27.0857 30.2786 26.9846 30.1995L24.6797 28.3935L24.6932 29.6378L26.3895 30.9668C26.4905 31.046 26.5086 31.1925 26.4298 31.294L24.8214 33.3677C24.7824 33.4179 24.7271 33.4476 24.6689 33.4554C24.6272 33.4981 24.5688 33.5252 24.5037 33.5259L21.888 33.5551C21.7599 33.5566 21.6549 33.4561 21.6535 33.3308L21.5159 20.7401C21.5086 20.0642 21.8632 19.4671 22.4031 19.1242Z" fill="#380055"/>
</g>
<defs>
<clipPath id="clip0_2_8">
<rect width="34" height="33.4426" fill="white" transform="translate(0 0.278687)"/>
</clipPath>
</defs>
</svg>
