<svg width="186" height="34" viewBox="0 0 186 34" fill="none" xmlns="http://www.w3.org/2000/svg">
<g clip-path="url(#clip0_2_12)">
<path fill-rule="evenodd" clip-rule="evenodd" d="M33.9446 21.4937C33.9518 21.5531 33.9365 21.6159 33.8965 21.6675L32.288 23.7411C32.2093 23.8427 32.0657 23.8626 31.9673 23.7856L22.0877 16.0447C21.5573 15.6292 21.314 14.9783 21.384 14.3403C21.3477 13.6111 21.8307 12.936 22.5628 12.7594L31.1937 10.6779C31.3183 10.6478 31.4435 10.725 31.4734 10.8502L32.0835 13.4069C32.1134 13.5321 32.0366 13.658 31.912 13.688L25.9308 15.1305L26.9072 15.8956L32.1377 14.6341C32.2623 14.604 32.3875 14.6812 32.4174 14.8064L33.0275 17.3631C33.0574 17.4883 32.9806 17.6142 32.856 17.6442L30.0138 18.3297L30.9902 19.0947L33.0817 18.5903C33.2063 18.5602 33.3316 18.6374 33.3615 18.7626L33.9715 21.3193C33.9863 21.3812 33.9748 21.4431 33.9446 21.4937ZM30.974 9.73038L18.7919 12.6684C18.1378 12.8261 17.4797 12.6115 17.027 12.1587C16.4374 11.7325 16.2136 10.9323 16.5327 10.247L20.2957 2.16706C20.35 2.05042 20.4881 2.00011 20.6042 2.05469L22.9733 3.1691C23.0893 3.22369 23.1394 3.36248 23.0851 3.47916L20.4774 9.07851L21.6813 8.78817L23.9617 3.89153C24.0161 3.77489 24.1542 3.72458 24.2702 3.77913L26.6394 4.89353C26.7554 4.94812 26.8055 5.08695 26.7511 5.20359L25.512 7.8643L26.716 7.57393L27.6278 5.61596C27.6821 5.49932 27.8202 5.44901 27.9363 5.5036L30.3054 6.618C30.3628 6.64499 30.4039 6.69261 30.4244 6.74791C30.475 6.77925 30.5142 6.83039 30.5294 6.89401L31.1395 9.45069C31.1693 9.57591 31.0953 9.70113 30.974 9.73038ZM14.1104 13.1536C13.8253 13.7657 13.2482 14.149 12.614 14.2226C11.9146 14.4207 11.1522 14.0977 10.8181 13.4195L6.87952 5.4255C6.82268 5.3101 6.86967 5.17022 6.9845 5.11304L9.32871 3.946C9.44355 3.88886 9.58272 3.93607 9.63956 4.05147L12.369 9.59124L12.8939 8.46417L10.507 3.61964C10.4502 3.50424 10.4971 3.36436 10.612 3.30718L12.9562 2.14018C13.071 2.083 13.2102 2.1302 13.2671 2.2456L14.564 4.87801L15.0889 3.7509L14.1345 1.81377C14.0777 1.69837 14.1247 1.55849 14.2395 1.50132L16.5837 0.334312C16.6404 0.306081 16.7031 0.303494 16.7588 0.321827C16.8148 0.301469 16.8791 0.302519 16.9381 0.330263L19.3072 1.44467C19.4233 1.49925 19.4745 1.63554 19.4216 1.74906L14.1104 13.1536ZM11.4663 18.9782C11.184 19.6506 10.4577 20.0479 9.72212 19.8878L1.04787 17.9994C0.922614 17.9721 0.843119 17.848 0.870252 17.7221L1.42429 15.1525C1.45142 15.0266 1.57496 14.9467 1.70017 14.9739L7.71153 16.2826L7.16216 15.1675L1.90518 14.0231C1.77997 13.9958 1.70047 13.8717 1.7276 13.7458L2.28164 11.1762C2.30878 11.0503 2.43227 10.9704 2.55752 10.9976L5.41405 11.6195L4.86467 10.5044L2.76253 10.0468C2.63732 10.0195 2.55779 9.89538 2.58496 9.76952L3.139 7.19987C3.15243 7.13756 3.18953 7.08668 3.23868 7.05433C3.25779 6.99772 3.2987 6.94793 3.35703 6.91891L5.70124 5.75187C5.81608 5.69473 5.95402 5.73942 6.00933 5.85174L11.5685 17.1349C11.867 17.7409 11.805 18.4337 11.4663 18.9782ZM14.45 22.843C14.7974 23.4842 14.6537 24.3029 14.0702 24.7812L7.19216 30.4205C7.09285 30.5019 6.94673 30.487 6.86575 30.3872L5.2124 28.3499C5.13141 28.2501 5.14627 28.1032 5.24554 28.0218L10.0121 24.1138L8.80207 23.8504L4.63376 27.268C4.53445 27.3494 4.38834 27.3345 4.30735 27.2347L2.654 25.1974C2.57301 25.0976 2.58787 24.9507 2.68714 24.8693L4.95212 23.0123L3.74215 22.7489L2.07537 24.1155C1.97605 24.1969 1.82994 24.1819 1.74895 24.0822L0.0956039 22.0449C0.0555578 21.9956 0.0391362 21.9347 0.0445479 21.876C0.0123766 21.8256 -0.000872546 21.7624 0.0129365 21.6984L0.566976 19.1288C0.594109 19.0029 0.714882 18.9224 0.836737 18.9489L13.0801 21.6143C13.7374 21.7574 14.2376 22.2377 14.45 22.843ZM17.5072 23.2188C18.0284 22.7915 18.7139 22.6978 19.3172 22.9083C20.0326 23.035 20.5798 23.6583 20.5881 24.415L20.6855 33.3354C20.687 33.4641 20.5842 33.5697 20.4561 33.5711L17.8404 33.6003C17.7123 33.6017 17.6072 33.4985 17.6058 33.3697L17.5383 27.1879L16.5789 27.9746L16.6379 33.3805C16.6393 33.5093 16.5366 33.6149 16.4085 33.6163L13.7928 33.6455C13.6646 33.6469 13.5596 33.5437 13.5582 33.4149L13.5261 30.4775L12.5667 31.2641L12.5903 33.4257C12.5917 33.5545 12.489 33.6601 12.3609 33.6615L9.74515 33.6907C9.68185 33.6914 9.62426 33.6664 9.58198 33.6255C9.52275 33.6194 9.46531 33.5904 9.42414 33.5397L7.7708 31.5024C7.68981 31.4027 7.7025 31.2575 7.79912 31.1783L17.5072 23.2188ZM22.4031 19.1242C22.9477 18.641 23.7739 18.5996 24.3676 19.0648L31.3672 24.5491C31.4683 24.6282 31.4864 24.7748 31.4076 24.8763L29.7991 26.95C29.7204 27.0516 29.5746 27.0698 29.4735 26.9906L24.6228 23.1899L24.6364 24.4343L28.8784 27.7579C28.9794 27.8371 28.9975 27.9836 28.9187 28.0852L27.3103 30.1589C27.2315 30.2605 27.0857 30.2786 26.9846 30.1995L24.6797 28.3935L24.6932 29.6378L26.3895 30.9668C26.4905 31.046 26.5086 31.1925 26.4298 31.294L24.8214 33.3677C24.7824 33.4179 24.7271 33.4476 24.6689 33.4554C24.6272 33.4981 24.5688 33.5252 24.5037 33.5259L21.888 33.5551C21.7599 33.5566 21.6549 33.4561 21.6535 33.3308L21.5159 20.7401C21.5086 20.0642 21.8632 19.4671 22.4031 19.1242Z" fill="#380055"/>
</g>
<path d="M56.624 14.364C56.4747 13.7853 56.2693 13.2533 56.008 12.768C55.7467 12.2827 55.4107 11.8627 55 11.508C54.5893 11.1533 54.104 10.8827 53.544 10.696C53.0027 10.4907 52.368 10.388 51.64 10.388C50.576 10.388 49.652 10.6027 48.868 11.032C48.1027 11.4613 47.4773 12.04 46.992 12.768C46.5067 13.4773 46.1427 14.2893 45.9 15.204C45.676 16.1187 45.564 17.052 45.564 18.004C45.564 18.956 45.676 19.8893 45.9 20.804C46.1427 21.7187 46.5067 22.54 46.992 23.268C47.4773 23.9773 48.1027 24.5467 48.868 24.976C49.652 25.4053 50.576 25.62 51.64 25.62C52.424 25.62 53.1147 25.4893 53.712 25.228C54.3093 24.948 54.8227 24.5747 55.252 24.108C55.6813 23.6227 56.0173 23.0627 56.26 22.428C56.5027 21.7933 56.6613 21.112 56.736 20.384H60.152C60.0773 21.5787 59.816 22.6707 59.368 23.66C58.9387 24.6493 58.3507 25.508 57.604 26.236C56.8573 26.9453 55.98 27.496 54.972 27.888C53.964 28.28 52.8533 28.476 51.64 28.476C50.1467 28.476 48.8027 28.2053 47.608 27.664C46.432 27.104 45.4333 26.348 44.612 25.396C43.7907 24.444 43.156 23.3333 42.708 22.064C42.2787 20.7947 42.064 19.4413 42.064 18.004C42.064 16.5853 42.2787 15.2413 42.708 13.972C43.156 12.7027 43.7907 11.592 44.612 10.64C45.4333 9.688 46.432 8.932 47.608 8.372C48.8027 7.812 50.1467 7.532 51.64 7.532C52.76 7.532 53.8147 7.69067 54.804 8.008C55.7933 8.30667 56.6613 8.75467 57.408 9.352C58.1733 9.93067 58.7893 10.64 59.256 11.48C59.7227 12.32 60.012 13.2813 60.124 14.364H56.624ZM73.611 24.78C73.611 25.172 73.6577 25.452 73.751 25.62C73.863 25.788 74.0684 25.872 74.367 25.872C74.4604 25.872 74.5724 25.872 74.703 25.872C74.8337 25.872 74.983 25.8533 75.151 25.816V28.028C75.039 28.0653 74.8897 28.1027 74.703 28.14C74.535 28.196 74.3577 28.2427 74.171 28.28C73.9844 28.3173 73.7977 28.3453 73.611 28.364C73.4244 28.3827 73.2657 28.392 73.135 28.392C72.4817 28.392 71.9404 28.2613 71.511 28C71.0817 27.7387 70.8017 27.2813 70.671 26.628C70.0364 27.244 69.2524 27.692 68.319 27.972C67.4044 28.252 66.5177 28.392 65.659 28.392C65.0057 28.392 64.3804 28.2987 63.783 28.112C63.1857 27.944 62.6537 27.692 62.187 27.356C61.739 27.0013 61.375 26.5627 61.095 26.04C60.8337 25.4987 60.703 24.8733 60.703 24.164C60.703 23.268 60.8617 22.54 61.179 21.98C61.515 21.42 61.9444 20.9813 62.467 20.664C63.0084 20.3467 63.6057 20.1227 64.259 19.992C64.931 19.8427 65.603 19.7307 66.275 19.656C66.8537 19.544 67.4044 19.4693 67.927 19.432C68.4497 19.376 68.907 19.292 69.299 19.18C69.7097 19.068 70.027 18.9 70.251 18.676C70.4937 18.4333 70.615 18.0787 70.615 17.612C70.615 17.2013 70.5124 16.8653 70.307 16.604C70.1204 16.3427 69.8777 16.1467 69.579 16.016C69.299 15.8667 68.9817 15.7733 68.627 15.736C68.2724 15.68 67.9364 15.652 67.619 15.652C66.723 15.652 65.9857 15.8387 65.407 16.212C64.8284 16.5853 64.5017 17.164 64.427 17.948H61.235C61.291 17.0147 61.515 16.24 61.907 15.624C62.299 15.008 62.7937 14.5133 63.391 14.14C64.007 13.7667 64.6977 13.5053 65.463 13.356C66.2284 13.2067 67.0124 13.132 67.815 13.132C68.5244 13.132 69.2244 13.2067 69.915 13.356C70.6057 13.5053 71.2217 13.748 71.763 14.084C72.323 14.42 72.771 14.8587 73.107 15.4C73.443 15.9227 73.611 16.5667 73.611 17.332V24.78ZM70.419 20.748C69.9337 21.0653 69.3364 21.2613 68.627 21.336C67.9177 21.392 67.2084 21.4853 66.499 21.616C66.163 21.672 65.8364 21.756 65.519 21.868C65.2017 21.9613 64.9217 22.1013 64.679 22.288C64.4364 22.456 64.2404 22.6893 64.091 22.988C63.9604 23.268 63.895 23.6133 63.895 24.024C63.895 24.3787 63.9977 24.6773 64.203 24.92C64.4084 25.1627 64.651 25.3587 64.931 25.508C65.2297 25.6387 65.547 25.732 65.883 25.788C66.2377 25.844 66.555 25.872 66.835 25.872C67.1897 25.872 67.5724 25.8253 67.983 25.732C68.3937 25.6387 68.7764 25.48 69.131 25.256C69.5044 25.032 69.8124 24.752 70.055 24.416C70.2977 24.0613 70.419 23.632 70.419 23.128V20.748ZM75.6456 13.524H78.6696V15.652L78.7256 15.708C79.211 14.9053 79.8456 14.28 80.6296 13.832C81.4136 13.3653 82.2816 13.132 83.2336 13.132C84.8203 13.132 86.071 13.5427 86.9856 14.364C87.9003 15.1853 88.3576 16.4173 88.3576 18.06V28H85.1656V18.9C85.1283 17.7613 84.8856 16.94 84.4376 16.436C83.9896 15.9133 83.2896 15.652 82.3376 15.652C81.7963 15.652 81.311 15.7547 80.8816 15.96C80.4523 16.1467 80.0883 16.4173 79.7896 16.772C79.491 17.108 79.2576 17.5093 79.0896 17.976C78.9216 18.4427 78.8376 18.9373 78.8376 19.46V28H75.6456V13.524ZM88.8957 13.524H92.3677L96.0357 24.64H96.0917L99.6197 13.524H102.924L97.7437 28H94.1597L88.8957 13.524ZM115.567 24.78C115.567 25.172 115.614 25.452 115.707 25.62C115.819 25.788 116.025 25.872 116.323 25.872C116.417 25.872 116.529 25.872 116.659 25.872C116.79 25.872 116.939 25.8533 117.107 25.816V28.028C116.995 28.0653 116.846 28.1027 116.659 28.14C116.491 28.196 116.314 28.2427 116.127 28.28C115.941 28.3173 115.754 28.3453 115.567 28.364C115.381 28.3827 115.222 28.392 115.091 28.392C114.438 28.392 113.897 28.2613 113.467 28C113.038 27.7387 112.758 27.2813 112.627 26.628C111.993 27.244 111.209 27.692 110.275 27.972C109.361 28.252 108.474 28.392 107.615 28.392C106.962 28.392 106.337 28.2987 105.739 28.112C105.142 27.944 104.61 27.692 104.143 27.356C103.695 27.0013 103.331 26.5627 103.051 26.04C102.79 25.4987 102.659 24.8733 102.659 24.164C102.659 23.268 102.818 22.54 103.135 21.98C103.471 21.42 103.901 20.9813 104.423 20.664C104.965 20.3467 105.562 20.1227 106.215 19.992C106.887 19.8427 107.559 19.7307 108.231 19.656C108.81 19.544 109.361 19.4693 109.883 19.432C110.406 19.376 110.863 19.292 111.255 19.18C111.666 19.068 111.983 18.9 112.207 18.676C112.45 18.4333 112.571 18.0787 112.571 17.612C112.571 17.2013 112.469 16.8653 112.263 16.604C112.077 16.3427 111.834 16.1467 111.535 16.016C111.255 15.8667 110.938 15.7733 110.583 15.736C110.229 15.68 109.893 15.652 109.575 15.652C108.679 15.652 107.942 15.8387 107.363 16.212C106.785 16.5853 106.458 17.164 106.383 17.948H103.191C103.247 17.0147 103.471 16.24 103.863 15.624C104.255 15.008 104.75 14.5133 105.347 14.14C105.963 13.7667 106.654 13.5053 107.419 13.356C108.185 13.2067 108.969 13.132 109.771 13.132C110.481 13.132 111.181 13.2067 111.871 13.356C112.562 13.5053 113.178 13.748 113.719 14.084C114.279 14.42 114.727 14.8587 115.063 15.4C115.399 15.9227 115.567 16.5667 115.567 17.332V24.78ZM112.375 20.748C111.89 21.0653 111.293 21.2613 110.583 21.336C109.874 21.392 109.165 21.4853 108.455 21.616C108.119 21.672 107.793 21.756 107.475 21.868C107.158 21.9613 106.878 22.1013 106.635 22.288C106.393 22.456 106.197 22.6893 106.047 22.988C105.917 23.268 105.851 23.6133 105.851 24.024C105.851 24.3787 105.954 24.6773 106.159 24.92C106.365 25.1627 106.607 25.3587 106.887 25.508C107.186 25.6387 107.503 25.732 107.839 25.788C108.194 25.844 108.511 25.872 108.791 25.872C109.146 25.872 109.529 25.8253 109.939 25.732C110.35 25.6387 110.733 25.48 111.087 25.256C111.461 25.032 111.769 24.752 112.011 24.416C112.254 24.0613 112.375 23.632 112.375 23.128V20.748ZM120.01 23.352C120.103 24.2853 120.458 24.9387 121.074 25.312C121.69 25.6853 122.427 25.872 123.286 25.872C123.585 25.872 123.921 25.8533 124.294 25.816C124.686 25.76 125.05 25.6667 125.386 25.536C125.722 25.4053 125.993 25.2187 126.198 24.976C126.422 24.7147 126.525 24.3787 126.506 23.968C126.487 23.5573 126.338 23.2213 126.058 22.96C125.778 22.6987 125.414 22.4933 124.966 22.344C124.537 22.176 124.042 22.036 123.482 21.924C122.922 21.812 122.353 21.6907 121.774 21.56C121.177 21.4293 120.598 21.2707 120.038 21.084C119.497 20.8973 119.002 20.6453 118.554 20.328C118.125 20.0107 117.779 19.6093 117.518 19.124C117.257 18.62 117.126 18.004 117.126 17.276C117.126 16.492 117.313 15.8387 117.686 15.316C118.078 14.7747 118.563 14.3453 119.142 14.028C119.739 13.692 120.393 13.4587 121.102 13.328C121.83 13.1973 122.521 13.132 123.174 13.132C123.921 13.132 124.63 13.216 125.302 13.384C125.993 13.5333 126.609 13.7853 127.15 14.14C127.71 14.4947 128.167 14.9613 128.522 15.54C128.895 16.1 129.129 16.7813 129.222 17.584H125.89C125.741 16.8187 125.386 16.3053 124.826 16.044C124.285 15.7827 123.659 15.652 122.95 15.652C122.726 15.652 122.455 15.6707 122.138 15.708C121.839 15.7453 121.55 15.82 121.27 15.932C121.009 16.0253 120.785 16.1747 120.598 16.38C120.411 16.5667 120.318 16.8187 120.318 17.136C120.318 17.528 120.449 17.8453 120.71 18.088C120.99 18.3307 121.345 18.536 121.774 18.704C122.222 18.8533 122.726 18.984 123.286 19.096C123.846 19.208 124.425 19.3293 125.022 19.46C125.601 19.5907 126.17 19.7493 126.73 19.936C127.29 20.1227 127.785 20.3747 128.214 20.692C128.662 21.0093 129.017 21.4107 129.278 21.896C129.558 22.3813 129.698 22.9787 129.698 23.688C129.698 24.5467 129.502 25.2747 129.11 25.872C128.718 26.4693 128.205 26.9547 127.57 27.328C126.954 27.7013 126.263 27.972 125.498 28.14C124.733 28.308 123.977 28.392 123.23 28.392C122.315 28.392 121.466 28.2893 120.682 28.084C119.917 27.8787 119.245 27.5707 118.666 27.16C118.106 26.7307 117.658 26.208 117.322 25.592C117.005 24.9573 116.837 24.2107 116.818 23.352H120.01ZM141.837 25.76C141.091 26.6747 140.26 27.3467 139.345 27.776C138.449 28.1867 137.413 28.392 136.237 28.392C135.323 28.392 134.473 28.2613 133.689 28C132.924 27.72 132.261 27.328 131.701 26.824C131.141 26.32 130.703 25.704 130.385 24.976C130.087 24.2293 129.937 23.3893 129.937 22.456C129.937 21.7467 130.068 21.1027 130.329 20.524C130.591 19.9453 130.936 19.4227 131.365 18.956C131.795 18.4707 132.28 18.0413 132.821 17.668C133.381 17.2947 133.951 16.9587 134.529 16.66C134.268 16.324 134.016 15.9973 133.773 15.68C133.531 15.344 133.316 14.9987 133.129 14.644C132.943 14.2893 132.793 13.916 132.681 13.524C132.569 13.132 132.513 12.7213 132.513 12.292C132.513 11.564 132.635 10.9107 132.877 10.332C133.139 9.75333 133.493 9.25867 133.941 8.848C134.389 8.41867 134.912 8.092 135.509 7.868C136.107 7.644 136.741 7.532 137.413 7.532C138.048 7.532 138.664 7.63467 139.261 7.84C139.877 8.02667 140.409 8.32533 140.857 8.736C141.324 9.128 141.697 9.62267 141.977 10.22C142.257 10.8173 142.397 11.5173 142.397 12.32C142.397 12.9173 142.295 13.468 142.089 13.972C141.903 14.476 141.641 14.9427 141.305 15.372C140.988 15.7827 140.605 16.156 140.157 16.492C139.728 16.828 139.271 17.1267 138.785 17.388L141.893 21.14C142.005 20.8227 142.117 20.4587 142.229 20.048C142.341 19.6373 142.435 19.1053 142.509 18.452H145.309C145.216 19.3293 145.039 20.188 144.777 21.028C144.535 21.868 144.189 22.6427 143.741 23.352L147.577 28H143.657L141.837 25.76ZM136.209 18.76C135.911 18.9467 135.584 19.1333 135.229 19.32C134.875 19.5067 134.539 19.74 134.221 20.02C133.923 20.3 133.661 20.636 133.437 21.028C133.232 21.42 133.129 21.9147 133.129 22.512C133.129 23.5947 133.428 24.4253 134.025 25.004C134.641 25.5827 135.416 25.872 136.349 25.872C136.928 25.872 137.423 25.7973 137.833 25.648C138.244 25.48 138.589 25.284 138.869 25.06C139.168 24.836 139.411 24.5933 139.597 24.332C139.803 24.0707 139.98 23.8373 140.129 23.632L136.209 18.76ZM137.497 9.912C136.9 9.912 136.396 10.1173 135.985 10.528C135.575 10.92 135.369 11.452 135.369 12.124C135.369 12.46 135.425 12.7773 135.537 13.076C135.668 13.356 135.817 13.636 135.985 13.916C136.172 14.1773 136.368 14.4387 136.573 14.7C136.797 14.9613 137.003 15.2133 137.189 15.456C137.488 15.2507 137.777 15.0453 138.057 14.84C138.337 14.616 138.589 14.3827 138.813 14.14C139.037 13.8787 139.215 13.5893 139.345 13.272C139.476 12.9547 139.541 12.6 139.541 12.208C139.541 11.5547 139.355 11.0133 138.981 10.584C138.608 10.136 138.113 9.912 137.497 9.912ZM161.422 14.364C161.272 13.7853 161.067 13.2533 160.806 12.768C160.544 12.2827 160.208 11.8627 159.798 11.508C159.387 11.1533 158.902 10.8827 158.342 10.696C157.8 10.4907 157.166 10.388 156.438 10.388C155.374 10.388 154.45 10.6027 153.666 11.032C152.9 11.4613 152.275 12.04 151.79 12.768C151.304 13.4773 150.94 14.2893 150.698 15.204C150.474 16.1187 150.362 17.052 150.362 18.004C150.362 18.956 150.474 19.8893 150.698 20.804C150.94 21.7187 151.304 22.54 151.79 23.268C152.275 23.9773 152.9 24.5467 153.666 24.976C154.45 25.4053 155.374 25.62 156.438 25.62C157.222 25.62 157.912 25.4893 158.51 25.228C159.107 24.948 159.62 24.5747 160.05 24.108C160.479 23.6227 160.815 23.0627 161.058 22.428C161.3 21.7933 161.459 21.112 161.534 20.384H164.95C164.875 21.5787 164.614 22.6707 164.166 23.66C163.736 24.6493 163.148 25.508 162.402 26.236C161.655 26.9453 160.778 27.496 159.77 27.888C158.762 28.28 157.651 28.476 156.438 28.476C154.944 28.476 153.6 28.2053 152.406 27.664C151.23 27.104 150.231 26.348 149.41 25.396C148.588 24.444 147.954 23.3333 147.506 22.064C147.076 20.7947 146.862 19.4413 146.862 18.004C146.862 16.5853 147.076 15.2413 147.506 13.972C147.954 12.7027 148.588 11.592 149.41 10.64C150.231 9.688 151.23 8.932 152.406 8.372C153.6 7.812 154.944 7.532 156.438 7.532C157.558 7.532 158.612 7.69067 159.602 8.008C160.591 8.30667 161.459 8.75467 162.206 9.352C162.971 9.93067 163.587 10.64 164.054 11.48C164.52 12.32 164.81 13.2813 164.922 14.364H161.422ZM175.245 10.388C174.181 10.388 173.257 10.6027 172.473 11.032C171.707 11.4613 171.082 12.04 170.597 12.768C170.111 13.4773 169.747 14.2893 169.505 15.204C169.281 16.1187 169.169 17.052 169.169 18.004C169.169 18.956 169.281 19.8893 169.505 20.804C169.747 21.7187 170.111 22.54 170.597 23.268C171.082 23.9773 171.707 24.5467 172.473 24.976C173.257 25.4053 174.181 25.62 175.245 25.62C176.309 25.62 177.223 25.4053 177.989 24.976C178.773 24.5467 179.407 23.9773 179.893 23.268C180.378 22.54 180.733 21.7187 180.957 20.804C181.199 19.8893 181.321 18.956 181.321 18.004C181.321 17.052 181.199 16.1187 180.957 15.204C180.733 14.2893 180.378 13.4773 179.893 12.768C179.407 12.04 178.773 11.4613 177.989 11.032C177.223 10.6027 176.309 10.388 175.245 10.388ZM175.245 7.532C176.738 7.532 178.073 7.812 179.249 8.372C180.443 8.932 181.451 9.688 182.273 10.64C183.094 11.592 183.719 12.7027 184.149 13.972C184.597 15.2413 184.821 16.5853 184.821 18.004C184.821 19.4413 184.597 20.7947 184.149 22.064C183.719 23.3333 183.094 24.444 182.273 25.396C181.451 26.348 180.443 27.104 179.249 27.664C178.073 28.2053 176.738 28.476 175.245 28.476C173.751 28.476 172.407 28.2053 171.213 27.664C170.037 27.104 169.038 26.348 168.217 25.396C167.395 24.444 166.761 23.3333 166.313 22.064C165.883 20.7947 165.669 19.4413 165.669 18.004C165.669 16.5853 165.883 15.2413 166.313 13.972C166.761 12.7027 167.395 11.592 168.217 10.64C169.038 9.688 170.037 8.932 171.213 8.372C172.407 7.812 173.751 7.532 175.245 7.532Z" fill="#380055"/>
<defs>
<clipPath id="clip0_2_12">
<rect width="34" height="33.4426" fill="white" transform="translate(0 0.278687)"/>
</clipPath>
</defs>
</svg>
